<?xml version="1.0" encoding="UTF-8" standalone="no"?>
<!DOCTYPE svg PUBLIC "-//W3C//DTD SVG 1.1//EN"
 "http://www.w3.org/Graphics/SVG/1.1/DTD/svg11.dtd">
<!-- Generated by graphviz version 14.1.2 (0)
 -->
<!-- Title: G Pages: 1 -->
<svg width="691pt" height="325pt"
 viewBox="0.00 0.00 691.00 325.00" xmlns="http://www.w3.org/2000/svg" xmlns:xlink="http://www.w3.org/1999/xlink">
<g id="graph0" class="graph" transform="scale(1 1) rotate(0) translate(4 321)">
<title>G</title>
<polygon fill="white" stroke="none" points="-4,4 -4,-321 687.12,-321 687.12,4 -4,4"/>
<g id="clust2" class="cluster">
<title>cluster_27b99ee1</title>
<polygon fill="none" stroke="black" stroke-dasharray="1,5" points="59.71,-124 59.71,-309 675.12,-309 675.12,-124 59.71,-124"/>
<text xml:space="preserve" text-anchor="middle" x="367.41" y="-292.4" font-family="Times New Roman,serif" font-size="14.00">File: retrieve</text>
</g>
<!-- Legend -->
<g id="node1" class="node">
<title>Legend</title>
<polygon fill="none" stroke="black" points="1,-96.2 1,-115 270.55,-115 270.55,-96.2 1,-96.2"/>
<text xml:space="preserve" text-anchor="start" x="81.93" y="-101.4" font-family="Times New Roman,serif" font-size="14.00">Code2flow Legend</text>
<polygon fill="none" stroke="black" points="1,-1 1,-96.2 270.55,-96.2 270.55,-1 1,-1"/>
<polygon fill="none" stroke="black" points="3,-71.4 3,-94.2 218.55,-94.2 218.55,-71.4 3,-71.4"/>
<text xml:space="preserve" text-anchor="start" x="63.54" y="-78.6" font-family="Times New Roman,serif" font-size="14.00">Regular function</text>
<polygon fill="#cccccc" stroke="none" points="218.55,-71.4 218.55,-94.2 268.55,-94.2 268.55,-71.4 218.55,-71.4"/>
<polygon fill="none" stroke="black" points="218.55,-71.4 218.55,-94.2 268.55,-94.2 268.55,-71.4 218.55,-71.4"/>
<polygon fill="none" stroke="black" points="3,-48.6 3,-71.4 218.55,-71.4 218.55,-48.6 3,-48.6"/>
<text xml:space="preserve" text-anchor="start" x="14.35" y="-55.8" font-family="Times New Roman,serif" font-size="14.00">Trunk function (nothing calls this)</text>
<polygon fill="#966f33" stroke="none" points="218.55,-48.6 218.55,-71.4 268.55,-71.4 268.55,-48.6 218.55,-48.6"/>
<polygon fill="none" stroke="black" points="218.55,-48.6 218.55,-71.4 268.55,-71.4 268.55,-48.6 218.55,-48.6"/>
<polygon fill="none" stroke="black" points="3,-25.8 3,-48.6 218.55,-48.6 218.55,-25.8 3,-25.8"/>
<text xml:space="preserve" text-anchor="start" x="6" y="-33" font-family="Times New Roman,serif" font-size="14.00">Leaf function (this calls nothing else)</text>
<polygon fill="#6db33f" stroke="none" points="218.55,-25.8 218.55,-48.6 268.55,-48.6 268.55,-25.8 218.55,-25.8"/>
<polygon fill="none" stroke="black" points="218.55,-25.8 218.55,-48.6 268.55,-48.6 268.55,-25.8 218.55,-25.8"/>
<polygon fill="none" stroke="black" points="3,-3 3,-25.8 218.55,-25.8 218.55,-3 3,-3"/>
<text xml:space="preserve" text-anchor="start" x="74.03" y="-10.2" font-family="Times New Roman,serif" font-size="14.00">Function call</text>
<polygon fill="none" stroke="black" points="218.55,-3 218.55,-25.8 268.55,-25.8 268.55,-3 218.55,-3"/>
<text xml:space="preserve" text-anchor="start" x="238.3" y="-10.2" font-family="Times New Roman,serif" font-size="14.00">→</text>
<polygon fill="none" stroke="black" points="2,-2 2,-95.2 269.55,-95.2 269.55,-2 2,-2"/>
<polygon fill="none" stroke="black" points="0,0 0,-116 271.55,-116 271.55,0 0,0"/>
</g>
<!-- node_2c207597 -->
<g id="node2" class="node">
<title>node_2c207597</title>
<path fill="#cccccc" stroke="black" d="M451.11,-168C451.11,-168 352.97,-168 352.97,-168 346.97,-168 340.97,-162 340.97,-156 340.97,-156 340.97,-144 340.97,-144 340.97,-138 346.97,-132 352.97,-132 352.97,-132 451.11,-132 451.11,-132 457.11,-132 463.11,-138 463.11,-144 463.11,-144 463.11,-156 463.11,-156 463.11,-162 457.11,-168 451.11,-168"/>
<text xml:space="preserve" text-anchor="middle" x="402.04" y="-145.8" font-family="Times New Roman,serif" font-size="14.00">143: hybrid_rank()</text>
</g>
<!-- node_77b09a28 -->
<g id="node6" class="node">
<title>node_77b09a28</title>
<path fill="#6db33f" stroke="black" d="M655.12,-168C655.12,-168 544.54,-168 544.54,-168 538.54,-168 532.54,-162 532.54,-156 532.54,-156 532.54,-144 532.54,-144 532.54,-138 538.54,-132 544.54,-132 544.54,-132 655.12,-132 655.12,-132 661.12,-132 667.12,-138 667.12,-144 667.12,-144 667.12,-156 667.12,-156 667.12,-162 661.12,-168 655.12,-168"/>
<text xml:space="preserve" text-anchor="middle" x="599.83" y="-145.8" font-family="Times New Roman,serif" font-size="14.00">172: tokenize_stem()</text>
</g>
<!-- node_2c207597&#45;&gt;node_77b09a28 -->
<g id="edge1" class="edge">
<title>node_2c207597&#45;&gt;node_77b09a28</title>
<path fill="none" stroke="#cc79a7" stroke-width="2" d="M463.54,-150C463.54,-150 519.15,-150 519.15,-150"/>
<polygon fill="#cc79a7" stroke="#cc79a7" stroke-width="2" points="519.15,-153.5 529.15,-150 519.15,-146.5 519.15,-153.5"/>
</g>
<!-- node_da4faf7a -->
<g id="node3" class="node">
<title>node_da4faf7a</title>
<path fill="#6db33f" stroke="black" d="M484.54,-222C484.54,-222 319.55,-222 319.55,-222 313.55,-222 307.55,-216 307.55,-210 307.55,-210 307.55,-198 307.55,-198 307.55,-192 313.55,-186 319.55,-186 319.55,-186 484.54,-186 484.54,-186 490.54,-186 496.54,-192 496.54,-198 496.54,-198 496.54,-210 496.54,-210 496.54,-216 490.54,-222 484.54,-222"/>
<text xml:space="preserve" text-anchor="middle" x="402.04" y="-199.8" font-family="Times New Roman,serif" font-size="14.00">108: parse_comunicado_date()</text>
</g>
<!-- node_9d91665c -->
<g id="node4" class="node">
<title>node_9d91665c</title>
<path fill="#6db33f" stroke="black" d="M466.27,-276C466.27,-276 337.82,-276 337.82,-276 331.82,-276 325.82,-270 325.82,-264 325.82,-264 325.82,-252 325.82,-252 325.82,-246 331.82,-240 337.82,-240 337.82,-240 466.27,-240 466.27,-240 472.27,-240 478.27,-246 478.27,-252 478.27,-252 478.27,-264 478.27,-264 478.27,-270 472.27,-276 466.27,-276"/>
<text xml:space="preserve" text-anchor="middle" x="402.04" y="-253.8" font-family="Times New Roman,serif" font-size="14.00">115: parse_query_date()</text>
</g>
<!-- node_60b3755a -->
<g id="node5" class="node">
<title>node_60b3755a</title>
<path fill="#cccccc" stroke="black" d="M191.83,-222C191.83,-222 79.71,-222 79.71,-222 73.71,-222 67.71,-216 67.71,-210 67.71,-210 67.71,-198 67.71,-198 67.71,-192 73.71,-186 79.71,-186 79.71,-186 191.83,-186 191.83,-186 197.83,-186 203.83,-192 203.83,-198 203.83,-198 203.83,-210 203.83,-210 203.83,-216 197.83,-222 191.83,-222"/>
<text xml:space="preserve" text-anchor="middle" x="135.77" y="-199.8" font-family="Times New Roman,serif" font-size="14.00">35: retrieve_chunks()</text>
</g>
<!-- node_60b3755a&#45;&gt;node_2c207597 -->
<g id="edge2" class="edge">
<title>node_60b3755a&#45;&gt;node_2c207597</title>
<path fill="none" stroke="#56b4e9" stroke-width="2" d="M136.12,-185.72C136.12,-170.05 136.12,-150 136.12,-150 136.12,-150 327.67,-150 327.67,-150"/>
<polygon fill="#56b4e9" stroke="#56b4e9" stroke-width="2" points="327.67,-153.5 337.67,-150 327.67,-146.5 327.67,-153.5"/>
</g>
<!-- node_60b3755a&#45;&gt;node_da4faf7a -->
<g id="edge3" class="edge">
<title>node_60b3755a&#45;&gt;node_da4faf7a</title>
<path fill="none" stroke="#56b4e9" stroke-width="2" d="M204,-204C204,-204 294.11,-204 294.11,-204"/>
<polygon fill="#56b4e9" stroke="#56b4e9" stroke-width="2" points="294.11,-207.5 304.11,-204 294.11,-200.5 294.11,-207.5"/>
</g>
<!-- node_60b3755a&#45;&gt;node_9d91665c -->
<g id="edge4" class="edge">
<title>node_60b3755a&#45;&gt;node_9d91665c</title>
<path fill="none" stroke="#56b4e9" stroke-width="2" d="M136.12,-222.28C136.12,-237.95 136.12,-258 136.12,-258 136.12,-258 312.46,-258 312.46,-258"/>
<polygon fill="#56b4e9" stroke="#56b4e9" stroke-width="2" points="312.46,-261.5 322.46,-258 312.46,-254.5 312.46,-261.5"/>
</g>
</g>
</svg>
